IKResults C02
version=1
nRows=9
nColumns=24
inDegrees=yes

Units are S.I. units (second, meters, Newtons, ...)
If the header above contains a line with 'inDegrees', this indicates whether rotational values are in degrees (yes) or radians (no).

endheader
time	pelvis_tilt	pelvis_list	pelvis_rotation	pelvis_tx	pelvis_ty	pelvis_tz	hip_flexion_r	hip_adduction_r	hip_rotation_r	knee_angle_r	ankle_angle_r	subtalar_angle_r	mtp_angle_r	hip_flexion_l	hip_adduction_l	hip_rotation_l	knee_angle_l	ankle_angle_l	subtalar_angle_l	mtp_angle_l	lumbar_extension	lumbar_bending	lumbar_rotation
      8.92000000	     -9.10536865	      3.35901385	    -78.24714796	     -0.21654920	      0.93169975	      0.43460443	     25.29036567	     10.45674557	     -1.62850312	    -17.47617417	     -0.53568665	    -19.88299721	      0.00000000	     11.73547418	    -11.67269515	      7.41707772	    -67.02590015	    -11.18854442	     -0.89831144	      0.00000000	     -6.01367970	     10.22729375	     -3.59449462
      8.93000000	     -9.09512280	      3.13851007	    -78.22021159	     -0.21702166	      0.93406857	      0.44872224	     23.85737291	     10.59083854	     -2.57402223	    -17.08080120	      1.69096725	    -16.48052524	      0.00000000	     13.79566828	    -11.26060059	      8.01463330	    -69.48129684	    -10.44327330	     -3.35173703	      0.00000000	     -6.42637235	     10.21698335	     -3.26298764
      8.94000000	     -9.02943629	      2.91611248	    -78.13728238	     -0.21737461	      0.93635936	      0.46276933	     22.29731697	     10.68258212	     -3.25178056	    -16.48427900	      2.51724587	    -16.00292280	      0.00000000	     15.87934860	    -10.76321838	      8.56921275	    -71.63845965	     -8.45528000	     -4.63219075	      0.00000000	     -6.79236037	     10.08479395	     -2.94152331
      8.95000000	     -8.94467495	      2.71278944	    -78.01162891	     -0.21765280	      0.93856067	      0.47686212	     20.73772434	     10.79632329	     -3.74136731	    -15.85198735	      3.60714517	    -15.15623130	      0.00000000	     18.02062515	    -10.21120780	      9.05999500	    -73.54817234	     -6.87504659	     -6.15782100	      0.00000000	     -7.15514826	      9.91363003	     -2.50969244
      8.96000000	     -8.83537190	      2.50755719	    -77.89146334	     -0.21795003	      0.94077126	      0.49094149	     19.09640580	     11.01374538	     -3.51737660	    -15.07383814	      4.64258625	    -14.68711922	      0.00000000	     20.02055218	     -9.64870728	      9.50674304	    -74.95992011	     -5.84630249	     -7.53560964	      0.00000000	     -7.57074699	      9.70444060	     -2.16007993
      8.97000000	     -8.66563494	      2.35889313	    -77.84234567	     -0.21830105	      0.94277373	      0.50493791	     17.63169193	     11.18425843	     -3.23347115	    -14.53137601	      5.59553905	    -14.43131436	      0.00000000	     22.07733498	     -9.02460362	      9.73083449	    -76.14821389	     -5.11454897	     -9.08799770	      0.00000000	     -7.87723984	      9.33523619	     -1.66001519
      8.98000000	     -8.42806830	      2.04123154	    -77.91090089	     -0.21886239	      0.94505787	      0.51987240	     15.95575856	     11.40464029	     -2.79054499	    -14.05546995	      6.43632157	    -14.39071355	      0.00000000	     23.65510384	     -8.50665473	      9.69497890	    -76.78665319	     -4.61475381	    -10.62076434	      0.00000000	     -8.32920939	      8.94707009	     -1.13871265
      8.99000000	     -8.18117849	      1.88103796	    -78.00700977	     -0.21944271	      0.94677465	      0.53412303	     14.57994395	     11.53466267	     -2.34805260	    -13.78540742	      7.20338050	    -14.29345814	      0.00000000	     25.40798376	     -7.98741748	      9.58631904	    -77.17858595	     -4.18284412	    -12.30689216	      0.00000000	     -8.47051077	      8.39054758	     -0.49859083
      9.00000000	     -7.92630796	      1.60189550	    -78.12510798	     -0.22005801	      0.94857575	      0.54879734	     13.02581163	     11.66992389	     -2.07366262	    -13.45593167	      7.87509904	    -14.31939411	      0.00000000	     26.91890186	     -7.51491999	      9.39426139	    -77.30736495	     -3.52167348	    -13.34173657	      0.00000000	     -9.00323352	      8.00210936	     -0.07025775
